<svg xmlns="http://www.w3.org/2000/svg" viewBox="0 0 94.4 103.35">
  <defs>
    <style>
      .a {
        fill: #8f0a0b;
      }
    </style>
  </defs>
  <path class="a" d="M83.32,3.33v15.9h-2a35.4,35.4,0,0,0-7-8,40.68,40.68,0,0,0-8.95-5.47A30.47,30.47,0,0,0,52.52,3.33,37.91,37.91,0,0,0,35.92,7.2,46.71,46.71,0,0,0,21.61,17.93a53.15,53.15,0,0,0-10,16.4A55.81,55.81,0,0,0,7.8,55a55.81,55.81,0,0,0,3.77,20.67,53.15,53.15,0,0,0,10,16.4A46.71,46.71,0,0,0,35.92,102.8a37.91,37.91,0,0,0,16.6,3.87,30.47,30.47,0,0,0,12.91-2.48,40.68,40.68,0,0,0,8.95-5.47,35.4,35.4,0,0,0,7-8h2v15.9H102.2V3.33ZM70.78,86.41c-5.53,5.64-12.58,9-20.24,9-17.82,0-32.26-18.23-32.26-40.72S32.72,14,50.54,14c8.9,0,17,4.56,22.81,11.93s9.44,17.55,9.44,28.79C82.79,67.52,78.11,79,70.78,86.41Z" transform="translate(-7.8 -3.33)"/>
</svg>
