<svg xmlns="http://www.w3.org/2000/svg" viewBox="0 0 217.59 111.55"><defs><style>.cls-1{isolation:isolate;}.cls-2{fill:#7b1213;}</style></defs><g id="M" class="cls-1"><g id="M-2" data-name="M"><polygon class="cls-2" points="90.75 2.78 54 48.53 17.25 2.78 0 2.78 0 107.78 15.75 107.78 15.75 25.28 17.25 25.28 54 71.03 90.75 25.28 92.25 25.28 92.25 107.78 108 107.78 108 2.78 90.75 2.78"/></g></g><g id="a" class="cls-1"><g id="a-2" data-name="a"><path class="cls-2" d="M198.84,6.51V19.39H196.7a38.66,38.66,0,0,0-7.51-8.58,43.25,43.25,0,0,0-9.66-5.9,33,33,0,0,0-13.94-2.69,40.82,40.82,0,0,0-17.91,4.19A50.57,50.57,0,0,0,132.23,18a57.38,57.38,0,0,0-10.83,17.7A60,60,0,0,0,117.32,58a60,60,0,0,0,4.08,22.31A57.38,57.38,0,0,0,132.23,98a50.57,50.57,0,0,0,15.45,11.58,40.82,40.82,0,0,0,17.91,4.19,33,33,0,0,0,13.94-2.69,43.25,43.25,0,0,0,9.66-5.9,38.66,38.66,0,0,0,7.51-8.58h2.14v12.88h20.38V6.51Z" transform="translate(-1.63 -2.22)"/></g></g></svg>