<svg xmlns="http://www.w3.org/2000/svg" viewBox="0 0 217.59 111.55"><defs><style>.cls-1{isolation:isolate;}.cls-2{fill:#7b1213;}</style></defs><g id="M" class="cls-1"><g id="M-2" data-name="M"><polygon class="cls-2" points="90.75 2.78 54 57.51 17.25 2.78 0 2.78 0 107.78 15.75 107.78 15.75 25.28 17.25 25.28 41.98 65.14 65.25 64.99 90.75 25.28 92.25 25.28 92.25 107.78 108 107.78 108 2.78 90.75 2.78"/></g></g><g id="a" class="cls-1"><g id="a-2" data-name="a"><path class="cls-2" d="M198.84,6.51V19.39H196.7a38.66,38.66,0,0,0-7.51-8.58,43.25,43.25,0,0,0-9.66-5.9,33,33,0,0,0-13.94-2.69,40.82,40.82,0,0,0-17.91,4.19A50.57,50.57,0,0,0,132.23,18a57.38,57.38,0,0,0-10.83,17.7A60,60,0,0,0,117.32,58a60,60,0,0,0,4.08,22.31A57.38,57.38,0,0,0,132.23,98a50.57,50.57,0,0,0,15.45,11.58,40.82,40.82,0,0,0,17.91,4.19,33,33,0,0,0,13.94-2.69,43.25,43.25,0,0,0,9.66-5.9,38.66,38.66,0,0,0,7.51-8.58h2.14v12.88h20.38V6.51Zm0,65.43a58.25,58.25,0,0,1-7.94,11.8,40.91,40.91,0,0,1-9.76,8.15,24.88,24.88,0,0,1-13.4,3.65A26.73,26.73,0,0,1,156.26,93a28.17,28.17,0,0,1-9.55-7.4,37.29,37.29,0,0,1-6.54-11.8A47,47,0,0,1,137.7,58a47,47,0,0,1,2.47-15.77,37.29,37.29,0,0,1,6.54-11.8,28.17,28.17,0,0,1,9.55-7.4,26.73,26.73,0,0,1,11.48-2.57,24.44,24.44,0,0,1,13.4,3.75,46.83,46.83,0,0,1,9.76,8,67.65,67.65,0,0,1,7.94,11.8Z" transform="translate(-1.63 -2.22)"/></g></g></svg>