<svg xmlns="http://www.w3.org/2000/svg" viewBox="0 0 1043.97 114"><defs><style>.cls-1{isolation:isolate;}.cls-2{fill:#7b1213;}</style></defs><g id="M_RS_TR_VEL" data-name="M    RS TR    VEL" class="cls-1"><g id="M_RS_TR_VEL-2" data-name="M    RS TR    VEL"><path class="cls-2" d="M55.38,51.75,18.63,6H1.38V111H17.13V28.5h1.5L55.38,74.25,92.13,28.5h1.5V111h15.75V6H92.13ZM325.6,57.08q3.52-6.22,3.52-15.83a36.15,36.15,0,0,0-2.7-14.1A32.22,32.22,0,0,0,318.7,16a35.24,35.24,0,0,0-12.22-7.35A46.58,46.58,0,0,0,290.43,6h-48.3V111h15.75V76.5h33.75L311.12,111h16.5l-21-37.5a34.47,34.47,0,0,0,11.24-6.6A36.37,36.37,0,0,0,325.6,57.08Zm-13.88-7.8A20,20,0,0,1,307.08,56a22.86,22.86,0,0,1-7.28,4.58,25.64,25.64,0,0,1-9.67,1.72H257.88v-42h32.55a26.76,26.76,0,0,1,9.45,1.58,21,21,0,0,1,7.2,4.42,20.07,20.07,0,0,1,4.64,6.68,20.77,20.77,0,0,1,1.65,8.32A20.07,20.07,0,0,1,311.72,49.28Zm103.43,12.6A41.63,41.63,0,0,0,405,56.25q-5.77-2.25-11.7-4t-11.7-3.38a66.42,66.42,0,0,1-10.2-3.75,24.71,24.71,0,0,1-7.2-4.95,9.9,9.9,0,0,1-2.77-7.2A13,13,0,0,1,363,26.78a19.08,19.08,0,0,1,4.57-5.55,22.93,22.93,0,0,1,7-4,26.82,26.82,0,0,1,9.22-1.5,29.92,29.92,0,0,1,9.45,1.35,23.62,23.62,0,0,1,7.13,3.75,20.22,20.22,0,0,1,5,5.7,33.4,33.4,0,0,1,3.15,7.2l15.75-2.25a43.51,43.51,0,0,0-5-11.62,36.67,36.67,0,0,0-8.48-9.53A40.92,40.92,0,0,0,399,3.9a48.74,48.74,0,0,0-30.9.23,39.14,39.14,0,0,0-12.07,7,30.45,30.45,0,0,0-7.72,10A27.37,27.37,0,0,0,345.63,33a23.79,23.79,0,0,0,2.77,11.93,28,28,0,0,0,7.2,8.32A40.2,40.2,0,0,0,365.8,59q5.77,2.25,11.7,4t11.7,3.38A66.89,66.89,0,0,1,399.4,70a24.44,24.44,0,0,1,7.2,4.8,9.44,9.44,0,0,1,2.77,7,15.54,15.54,0,0,1-1.8,7.13,20.25,20.25,0,0,1-5.1,6.3,25.23,25.23,0,0,1-8,4.42,32,32,0,0,1-10.58,1.65,33.29,33.29,0,0,1-10.57-1.57,25.9,25.9,0,0,1-8.17-4.35,29.09,29.09,0,0,1-5.93-6.45A31,31,0,0,1,355.38,81l-15.75,2.25a56,56,0,0,0,6,13,40.58,40.58,0,0,0,9.15,10.2,41,41,0,0,0,12.59,6.67,52.12,52.12,0,0,0,16.5,2.4,50.34,50.34,0,0,0,17.25-2.78,41.09,41.09,0,0,0,13-7.34,31.47,31.47,0,0,0,8.17-10.73,30.33,30.33,0,0,0,2.85-12.9,23,23,0,0,0-2.77-11.7A27.47,27.47,0,0,0,415.15,61.88Zm45.22-41.63h35.25V111h15.75V20.25h35.25V6H460.37ZM642.84,57.08q3.52-6.22,3.53-15.83a36.15,36.15,0,0,0-2.7-14.1A32.25,32.25,0,0,0,635.94,16a35.15,35.15,0,0,0-12.22-7.35A46.58,46.58,0,0,0,607.67,6h-48.3V111h15.75V76.5h33.75l19.5,34.5h16.5l-21-37.5a34.41,34.41,0,0,0,11.25-6.6A36.35,36.35,0,0,0,642.84,57.08ZM629,49.28A20.06,20.06,0,0,1,624.32,56,22.86,22.86,0,0,1,617,60.53a25.64,25.64,0,0,1-9.67,1.72H575.12v-42h32.55a26.76,26.76,0,0,1,9.45,1.58,21,21,0,0,1,7.2,4.42A20.1,20.1,0,0,1,629,32.93a20.77,20.77,0,0,1,1.65,8.32A20.07,20.07,0,0,1,629,49.28ZM827.11,96.75H805.36L783.61,6H767.86l25.5,105h45.75L864.61,6H848.86ZM879.61,111h77.25V96.75h-61.5V65.25h48.75V51H895.36V20.25h61.5V6H879.61Zm108-14.25V6H971.86V111h73.5V96.75Z" transform="translate(-1.38 -1.5)"/></g></g><g id="a_left" data-name="a left" class="cls-1"><g id="a_left-2" data-name="a left"><path class="cls-2" d="M203.29,6.83V19.7h-2.14a38.41,38.41,0,0,0-7.51-8.58A43.54,43.54,0,0,0,184,5.22a33,33,0,0,0-14-2.68,40.8,40.8,0,0,0-17.91,4.18A50.57,50.57,0,0,0,136.68,18.3,57.38,57.38,0,0,0,125.85,36a60,60,0,0,0-4.08,22.31,60,60,0,0,0,4.08,22.31,57.15,57.15,0,0,0,10.83,17.7,50.41,50.41,0,0,0,15.45,11.58A40.82,40.82,0,0,0,170,114.09a33.16,33.16,0,0,0,14-2.68,43.92,43.92,0,0,0,9.65-5.9,38.85,38.85,0,0,0,7.51-8.58h2.14V109.8h20.38V6.83Z" transform="translate(-1.38 -1.5)"/></g></g><g id="a_right" data-name="a right" class="cls-1"><g id="a_right-2" data-name="a right"><path class="cls-2" d="M736.29,6.83V19.7h-2.14a38.41,38.41,0,0,0-7.51-8.58A43.77,43.77,0,0,0,717,5.22a33,33,0,0,0-14-2.68,40.8,40.8,0,0,0-17.91,4.18A50.57,50.57,0,0,0,669.68,18.3,57.38,57.38,0,0,0,658.85,36a60,60,0,0,0-4.08,22.31,60,60,0,0,0,4.08,22.31,57.15,57.15,0,0,0,10.83,17.7,50.41,50.41,0,0,0,15.45,11.58A40.82,40.82,0,0,0,703,114.09a33.16,33.16,0,0,0,14-2.68,44.15,44.15,0,0,0,9.65-5.9,38.85,38.85,0,0,0,7.51-8.58h2.14V109.8h20.38V6.83Z" transform="translate(-1.38 -1.5)"/></g></g></svg>