<svg xmlns="http://www.w3.org/2000/svg" viewBox="0 0 446.75 105.5">
  <defs>
    <style>
      .a {
        isolation: isolate;
      }

      .b {
        fill: #7b1213;
      }
    </style>
  </defs>
  <g class="a">
    <path class="b" d="M432.25,74.41A14.41,14.41,0,0,1,430.59,81a18.79,18.79,0,0,1-4.7,5.8,23.33,23.33,0,0,1-7.39,4.07,29.24,29.24,0,0,1-9.74,1.52A30.61,30.61,0,0,1,399,90.92a23.94,23.94,0,0,1-7.53-4A27,27,0,0,1,386,81a28.68,28.68,0,0,1-3.52-7.26L368,75.8a51.75,51.75,0,0,0,5.52,12A37.46,37.46,0,0,0,382,97.14a37.89,37.89,0,0,0,11.6,6.15,48.12,48.12,0,0,0,15.2,2.21,46.26,46.26,0,0,0,15.89-2.56,38,38,0,0,0,12-6.77,29,29,0,0,0,7.53-9.88,27.88,27.88,0,0,0,2.62-11.88,21.22,21.22,0,0,0-2.55-10.77,25.44,25.44,0,0,0-6.63-7.53,38.37,38.37,0,0,0-9.4-5.18q-5.32-2.07-10.78-3.66c-3.63-1.06-7.23-2.1-10.77-3.11a60.81,60.81,0,0,1-9.4-3.46,22.73,22.73,0,0,1-6.63-4.55A9.14,9.14,0,0,1,388,29.51a11.94,11.94,0,0,1,1.52-5.73,17.44,17.44,0,0,1,4.21-5.11A21.14,21.14,0,0,1,400.26,15a24.81,24.81,0,0,1,8.5-1.38,27.46,27.46,0,0,1,8.7,1.24A21.85,21.85,0,0,1,424,18.32a18.8,18.8,0,0,1,4.62,5.25,31,31,0,0,1,2.91,6.63l14.5-2.07a39.79,39.79,0,0,0-4.63-10.7,33.65,33.65,0,0,0-7.8-8.78,38,38,0,0,0-10.92-5.94,44.92,44.92,0,0,0-28.46.21,36.1,36.1,0,0,0-11.12,6.42A28.14,28.14,0,0,0,376,18.6a25.18,25.18,0,0,0-2.49,10.91,21.87,21.87,0,0,0,2.56,11,25.65,25.65,0,0,0,6.63,7.66,37.05,37.05,0,0,0,9.39,5.25q5.33,2.09,10.78,3.73t10.77,3.11a62.32,62.32,0,0,1,9.4,3.32A22.42,22.42,0,0,1,429.69,68,8.71,8.71,0,0,1,432.25,74.41Z"/>
    <path class="b" d="M273.05,70.5H306.8L326.3,105h16.5l-21-37.5a34.41,34.41,0,0,0,11.25-6.6,36.43,36.43,0,0,0,7.73-9.83q3.53-6.23,3.52-15.82a36.15,36.15,0,0,0-2.7-14.1A32.26,32.26,0,0,0,333.88,10a35.2,35.2,0,0,0-12.23-7.35A46.59,46.59,0,0,0,305.6,0H257.3V105h15.75ZM305.3,56.25H273.05v-42H305.6a26.76,26.76,0,0,1,9.45,1.57,21,21,0,0,1,7.2,4.43,20.06,20.06,0,0,1,4.65,6.67,20.82,20.82,0,0,1,1.65,8.33,20.29,20.29,0,0,1-6.3,14.7A22.79,22.79,0,0,1,315,54.52,25.69,25.69,0,0,1,305.3,56.25Z"/>
    <path class="b" d="M207.22,1.32v15.9h-2a36.15,36.15,0,0,0-7-7.95,41,41,0,0,0-8.94-5.46,30.54,30.54,0,0,0-12.92-2.49,37.92,37.92,0,0,0-16.6,3.88,46.79,46.79,0,0,0-14.31,10.73,52.82,52.82,0,0,0-10,16.4A55.61,55.61,0,0,0,131.7,53a55.61,55.61,0,0,0,3.78,20.67,52.77,52.77,0,0,0,10,16.39,46.82,46.82,0,0,0,14.31,10.74,37.91,37.91,0,0,0,16.6,3.87,30.7,30.7,0,0,0,12.92-2.48,40.59,40.59,0,0,0,8.94-5.47,35.7,35.7,0,0,0,7-8h2v15.9h18.89V1.32ZM194.68,84.41c-5.53,5.64-12.57,9-20.24,9-17.82,0-32.26-18.23-32.26-40.72S156.62,12,174.44,12c8.91,0,17,4.56,22.81,11.93s9.45,17.55,9.45,28.79C206.7,65.52,202,77,194.68,84.41Z"/>
    <polygon class="b" points="89.32 1.32 53.15 46.35 16.98 1.32 0 1.32 0 104.67 15.5 104.67 15.5 23.47 16.98 23.47 53.15 68.5 89.32 23.47 90.8 23.47 90.8 104.67 106.3 104.67 106.3 1.32 89.32 1.32"/>
  </g>
</svg>
