<svg id="Orbit" xmlns="http://www.w3.org/2000/svg" xmlns:xlink="http://www.w3.org/1999/xlink" viewBox="0 0 502 504">
  <defs>
    <style>
      .cls-1 {
        fill: #84342d;
      }

      .cls-2 {
        fill: #ff834c;
      }

      .cls-3 {
        fill: url(#Безымянный_градиент_6);
      }
    </style>
    <radialGradient id="Безымянный_градиент_6" data-name="Безымянный градиент 6" cx="237.84" cy="3.03" r="4.07" gradientUnits="userSpaceOnUse">
      <stop offset="0" stop-color="#f7931e"/>
      <stop offset="1" stop-color="#f7931e"/>
    </radialGradient>
  </defs>
  <g id="Circrle">
    <path class="cls-1" d="M256,6.5A249.42,249.42,0,0,1,432.42,432.42,249.5,249.5,0,1,1,158.88,26.11,248,248,0,0,1,256,6.5M256,5C117.38,5,5,117.38,5,256S117.38,507,256,507,507,394.62,507,256,394.62,5,256,5Z" transform="translate(-5 -3)"/>
  </g>
  <g id="Plane_1">
    <circle class="cls-2" cx="15" cy="337" r="3"/>
  </g>
  <g id="Plane_2">
    <circle class="cls-3" cx="238" cy="3" r="3"/>
  </g>
  <g id="Plane_3">
    <circle class="cls-2" cx="483" cy="158" r="3"/>
  </g>
  <g id="Plane_4">
    <circle class="cls-2" cx="409" cy="447" r="3"/>
  </g>
</svg>
