<svg xmlns="http://www.w3.org/2000/svg" viewBox="0 0 87 105">
  <defs>
    <style>
      .a {
        fill: #8f0a0b;
      }
    </style>
  </defs>
  <path class="a" d="M27.25,73H61l19.5,34.5H97L76,70a34.41,34.41,0,0,0,11.25-6.6A36.51,36.51,0,0,0,95,53.58q3.52-6.22,3.53-15.83a36.15,36.15,0,0,0-2.7-14.1,32.25,32.25,0,0,0-7.73-11.17A35.15,35.15,0,0,0,75.85,5.13a46.58,46.58,0,0,0-16-2.63H11.5v105H27.25ZM59.5,58.75H27.25v-42H59.8a26.76,26.76,0,0,1,9.45,1.58,21,21,0,0,1,7.2,4.42,20.1,20.1,0,0,1,4.65,6.68,20.77,20.77,0,0,1,1.65,8.32,20.24,20.24,0,0,1-6.3,14.7A22.84,22.84,0,0,1,69.17,57,25.64,25.64,0,0,1,59.5,58.75Z" transform="translate(-11.5 -2.5)"/>
</svg>
