<svg xmlns="http://www.w3.org/2000/svg" viewBox="0 0 182.99 114"><defs><style>.cls-1{isolation:isolate;}.cls-2{fill:#7b1213;}</style></defs><g id="RS" class="cls-1"><g id="RS-2" data-name="RS"><path class="cls-2" d="M85.72,56.08q3.52-6.22,3.53-15.83a36.15,36.15,0,0,0-2.7-14.1A32.25,32.25,0,0,0,78.82,15,35.15,35.15,0,0,0,66.6,7.63,46.58,46.58,0,0,0,50.55,5H2.25V110H18V75.5H51.75L71.25,110h16.5l-21-37.5A34.41,34.41,0,0,0,78,65.9,36.35,36.35,0,0,0,85.72,56.08Zm-13.87-7.8A20.06,20.06,0,0,1,67.2,55a22.86,22.86,0,0,1-7.28,4.58,25.64,25.64,0,0,1-9.67,1.72H18v-42H50.55A26.76,26.76,0,0,1,60,20.83a21,21,0,0,1,7.2,4.42,20.1,20.1,0,0,1,4.65,6.68,20.77,20.77,0,0,1,1.65,8.32A20.07,20.07,0,0,1,71.85,48.28ZM182.47,69.05a27.47,27.47,0,0,0-7.2-8.17,41.63,41.63,0,0,0-10.2-5.63q-5.77-2.25-11.7-4t-11.7-3.38a66.42,66.42,0,0,1-10.2-3.75,24.71,24.71,0,0,1-7.2-4.95A9.9,9.9,0,0,1,121.5,32a13,13,0,0,1,1.65-6.22,19.08,19.08,0,0,1,4.57-5.55,22.93,22.93,0,0,1,7.05-4,26.87,26.87,0,0,1,9.23-1.5,29.92,29.92,0,0,1,9.45,1.35,23.57,23.57,0,0,1,7.12,3.75,20.26,20.26,0,0,1,5,5.7,33.4,33.4,0,0,1,3.15,7.2l15.74-2.25a43.51,43.51,0,0,0-5-11.62A36.81,36.81,0,0,0,171,9.35,40.92,40.92,0,0,0,159.15,2.9a48.74,48.74,0,0,0-30.9.23,39.08,39.08,0,0,0-12.08,7,30.45,30.45,0,0,0-7.72,10A27.37,27.37,0,0,0,105.75,32a23.79,23.79,0,0,0,2.77,11.93,28,28,0,0,0,7.2,8.32,40.2,40.2,0,0,0,10.2,5.7q5.78,2.25,11.7,4t11.7,3.38a66.89,66.89,0,0,1,10.2,3.6,24.44,24.44,0,0,1,7.2,4.8,9.45,9.45,0,0,1,2.78,7,15.54,15.54,0,0,1-1.8,7.13,20.25,20.25,0,0,1-5.1,6.3,25.29,25.29,0,0,1-8,4.42A31.9,31.9,0,0,1,144,100.25a33.36,33.36,0,0,1-10.58-1.57,26,26,0,0,1-8.17-4.35,29.09,29.09,0,0,1-5.93-6.45A31,31,0,0,1,115.5,80L99.75,82.25a56,56,0,0,0,6,13A39.84,39.84,0,0,0,127.5,112.1a52.12,52.12,0,0,0,16.5,2.4,50.34,50.34,0,0,0,17.25-2.78,41,41,0,0,0,13-7.34,31.47,31.47,0,0,0,8.17-10.73,30.33,30.33,0,0,0,2.85-12.9A23,23,0,0,0,182.47,69.05Z" transform="translate(-2.25 -0.5)"/></g></g></svg>