<svg xmlns="http://www.w3.org/2000/svg" viewBox="0 0 78.75 105">
  <defs>
    <style>
      .a {
        fill: #8f0a0b;
      }
    </style>
  </defs>
  <path class="a" d="M79.87,76.41A14.41,14.41,0,0,1,78.21,83a18.79,18.79,0,0,1-4.7,5.8,23.22,23.22,0,0,1-7.39,4.07,29.24,29.24,0,0,1-9.74,1.52,30.61,30.61,0,0,1-9.74-1.45,23.94,23.94,0,0,1-7.53-4A27,27,0,0,1,33.66,83a28.71,28.71,0,0,1-3.53-7.26L15.63,77.8a51.75,51.75,0,0,0,5.52,12,36.79,36.79,0,0,0,20,15.54,48.17,48.17,0,0,0,15.2,2.21,46.22,46.22,0,0,0,15.89-2.56,37.9,37.9,0,0,0,12-6.77,29,29,0,0,0,7.53-9.88,27.88,27.88,0,0,0,2.62-11.88,21.22,21.22,0,0,0-2.55-10.77,25.44,25.44,0,0,0-6.63-7.53,38.37,38.37,0,0,0-9.4-5.18c-3.54-1.38-7.14-2.6-10.77-3.66s-7.23-2.1-10.78-3.11a60.29,60.29,0,0,1-9.39-3.46,22.65,22.65,0,0,1-6.64-4.55,9.14,9.14,0,0,1-2.55-6.64,12.05,12.05,0,0,1,1.52-5.73,17.6,17.6,0,0,1,4.21-5.11A21.08,21.08,0,0,1,47.89,17a24.71,24.71,0,0,1,8.49-1.38,27.56,27.56,0,0,1,8.71,1.24,21.92,21.92,0,0,1,6.56,3.45,18.84,18.84,0,0,1,4.63,5.25,31.46,31.46,0,0,1,2.9,6.63l14.5-2.07a39.79,39.79,0,0,0-4.63-10.7,33.65,33.65,0,0,0-7.8-8.78A38,38,0,0,0,70.33,4.71,41.5,41.5,0,0,0,56.38,2.5a41.3,41.3,0,0,0-14.5,2.42,36,36,0,0,0-11.13,6.42,28.14,28.14,0,0,0-7.11,9.26,25.18,25.18,0,0,0-2.49,10.91,21.87,21.87,0,0,0,2.56,11,25.65,25.65,0,0,0,6.63,7.66,37.05,37.05,0,0,0,9.39,5.25q5.33,2.09,10.78,3.73t10.78,3.11a62.57,62.57,0,0,1,9.39,3.32A22.42,22.42,0,0,1,77.31,70,8.67,8.67,0,0,1,79.87,76.41Z" transform="translate(-15.63 -2.5)"/>
</svg>
